<svg xmlns="http://www.w3.org/2000/svg" width="1180" height="720" viewBox="0 0 1180 720" role="img" aria-labelledby="title desc">
<title id="title">Target and draft checkpoint legs</title>
<desc id="desc">Exact AAL target and draft cross-swap effects for three model pairs and two response families.</desc>
<style>
text{font-family:Inter,Arial,sans-serif;fill:#172033}
.title{font-size:26px;font-weight:750}.subtitle{font-size:14px;fill:#526078}
.panel{font-size:19px;font-weight:700}.axis{font-size:12px;fill:#667085}
.label{font-size:14px;font-weight:650}.value{font-size:12px;font-weight:650}
.grid{stroke:#d8dee9;stroke-width:1}.zero{stroke:#172033;stroke-width:1.6}
</style>
<rect width="1180" height="720" fill="#fbfcff"/>
<text x="44" y="48" class="title">Cross-swap reveals opposing target and draft legs</text>
<text x="44" y="75" class="subtitle">candidate − carrier stochastic exact AAL · seed 99 descriptive screen</text>
<rect x="55" y="105" width="520" height="550" rx="18" fill="#ffffff" stroke="#e2e8f0"/>
<text x="90" y="142" class="panel">Single-domain UCR</text>
<line x1="90.00" x2="90.00" y1="165" y2="615" class="grid"/>
<text x="90.00" y="637" text-anchor="middle" class="axis">-0.08</text>
<line x1="202.50" x2="202.50" y1="165" y2="615" class="grid"/>
<text x="202.50" y="637" text-anchor="middle" class="axis">-0.04</text>
<line x1="315.00" x2="315.00" y1="165" y2="615" class="zero"/>
<text x="315.00" y="637" text-anchor="middle" class="axis">+0.00</text>
<line x1="427.50" x2="427.50" y1="165" y2="615" class="grid"/>
<text x="427.50" y="637" text-anchor="middle" class="axis">+0.04</text>
<line x1="540.00" x2="540.00" y1="165" y2="615" class="grid"/>
<text x="540.00" y="637" text-anchor="middle" class="axis">+0.08</text>
<text x="90" y="205" class="label">Target checkpoint leg</text>
<text x="90" y="249" class="axis">GPT-2</text>
<line x1="315.00" x2="265.09" y1="244.00" y2="244.00" stroke="#2563eb" stroke-width="5" stroke-linecap="round"/>
<circle cx="265.09" cy="244.00" r="7" fill="#2563eb"/>
<text x="254.09" y="248.00" text-anchor="end" class="value">-0.01775</text>
<text x="90" y="294" class="axis">OPT</text>
<line x1="315.00" x2="221.63" y1="289.00" y2="289.00" stroke="#f59e0b" stroke-width="5" stroke-linecap="round"/>
<circle cx="221.63" cy="289.00" r="7" fill="#f59e0b"/>
<text x="210.63" y="293.00" text-anchor="end" class="value">-0.03320</text>
<text x="90" y="339" class="axis">Pythia</text>
<line x1="315.00" x2="311.27" y1="334.00" y2="334.00" stroke="#10b981" stroke-width="5" stroke-linecap="round"/>
<circle cx="311.27" cy="334.00" r="7" fill="#10b981"/>
<text x="300.27" y="338.00" text-anchor="end" class="value">-0.00133</text>
<text x="90" y="415" class="label">Draft checkpoint leg</text>
<text x="90" y="459" class="axis">GPT-2</text>
<line x1="315.00" x2="337.57" y1="454.00" y2="454.00" stroke="#2563eb" stroke-width="5" stroke-linecap="round"/>
<circle cx="337.57" cy="454.00" r="7" fill="#2563eb"/>
<text x="348.57" y="458.00" text-anchor="start" class="value">+0.00803</text>
<text x="90" y="504" class="axis">OPT</text>
<line x1="315.00" x2="365.08" y1="499.00" y2="499.00" stroke="#f59e0b" stroke-width="5" stroke-linecap="round"/>
<circle cx="365.08" cy="499.00" r="7" fill="#f59e0b"/>
<text x="376.08" y="503.00" text-anchor="start" class="value">+0.01781</text>
<text x="90" y="549" class="axis">Pythia</text>
<line x1="315.00" x2="383.18" y1="544.00" y2="544.00" stroke="#10b981" stroke-width="5" stroke-linecap="round"/>
<circle cx="383.18" cy="544.00" r="7" fill="#10b981"/>
<text x="394.18" y="548.00" text-anchor="start" class="value">+0.02424</text>
<rect x="615" y="105" width="520" height="550" rx="18" fill="#ffffff" stroke="#e2e8f0"/>
<text x="650" y="142" class="panel">Multi-domain WCR</text>
<line x1="650.00" x2="650.00" y1="165" y2="615" class="grid"/>
<text x="650.00" y="637" text-anchor="middle" class="axis">-0.08</text>
<line x1="762.50" x2="762.50" y1="165" y2="615" class="grid"/>
<text x="762.50" y="637" text-anchor="middle" class="axis">-0.04</text>
<line x1="875.00" x2="875.00" y1="165" y2="615" class="zero"/>
<text x="875.00" y="637" text-anchor="middle" class="axis">+0.00</text>
<line x1="987.50" x2="987.50" y1="165" y2="615" class="grid"/>
<text x="987.50" y="637" text-anchor="middle" class="axis">+0.04</text>
<line x1="1100.00" x2="1100.00" y1="165" y2="615" class="grid"/>
<text x="1100.00" y="637" text-anchor="middle" class="axis">+0.08</text>
<text x="650" y="205" class="label">Target checkpoint leg</text>
<text x="650" y="249" class="axis">GPT-2</text>
<line x1="875.00" x2="800.90" y1="244.00" y2="244.00" stroke="#2563eb" stroke-width="5" stroke-linecap="round"/>
<circle cx="800.90" cy="244.00" r="7" fill="#2563eb"/>
<text x="789.90" y="248.00" text-anchor="end" class="value">-0.02635</text>
<text x="650" y="294" class="axis">OPT</text>
<line x1="875.00" x2="970.84" y1="289.00" y2="289.00" stroke="#f59e0b" stroke-width="5" stroke-linecap="round"/>
<circle cx="970.84" cy="289.00" r="7" fill="#f59e0b"/>
<text x="981.84" y="293.00" text-anchor="start" class="value">+0.03408</text>
<text x="650" y="339" class="axis">Pythia</text>
<line x1="875.00" x2="893.33" y1="334.00" y2="334.00" stroke="#10b981" stroke-width="5" stroke-linecap="round"/>
<circle cx="893.33" cy="334.00" r="7" fill="#10b981"/>
<text x="904.33" y="338.00" text-anchor="start" class="value">+0.00652</text>
<text x="650" y="415" class="label">Draft checkpoint leg</text>
<text x="650" y="459" class="axis">GPT-2</text>
<line x1="875.00" x2="1027.63" y1="454.00" y2="454.00" stroke="#2563eb" stroke-width="5" stroke-linecap="round"/>
<circle cx="1027.63" cy="454.00" r="7" fill="#2563eb"/>
<text x="1038.63" y="458.00" text-anchor="start" class="value">+0.05427</text>
<text x="650" y="504" class="axis">OPT</text>
<line x1="875.00" x2="692.34" y1="499.00" y2="499.00" stroke="#f59e0b" stroke-width="5" stroke-linecap="round"/>
<circle cx="692.34" cy="499.00" r="7" fill="#f59e0b"/>
<text x="681.34" y="503.00" text-anchor="end" class="value">-0.06495</text>
<text x="650" y="549" class="axis">Pythia</text>
<line x1="875.00" x2="818.34" y1="544.00" y2="544.00" stroke="#10b981" stroke-width="5" stroke-linecap="round"/>
<circle cx="818.34" cy="544.00" r="7" fill="#10b981"/>
<text x="807.34" y="548.00" text-anchor="end" class="value">-0.02015</text>
<text x="44" y="690" class="subtitle">Single UCR: target leg 0/3 positive, draft leg 3/3 positive. WCR is mixed.</text>
</svg>
