<svg xmlns="http://www.w3.org/2000/svg" width="1200" height="650" viewBox="0 0 1200 650" role="img" aria-labelledby="title desc">
<title id="title">Full-Hybrid ↔ response HVP trajectory</title>
<desc id="desc">Stage-0 step 10 and active Stage-1 diagnostics; zero OPT errors are drawn at 1e-7.</desc>
<style>
  .bg { fill:#fbfcff; } .panel { fill:#fff; stroke:#d8dfec; stroke-width:1.5; }
  .title { font:700 30px system-ui,sans-serif; fill:#14213d; }
  .sub { font:500 16px system-ui,sans-serif; fill:#59657a; }
  .label { font:600 17px system-ui,sans-serif; fill:#24324a; }
  .small { font:500 14px system-ui,sans-serif; fill:#59657a; }
  .tick { font:500 13px system-ui,sans-serif; fill:#667085; }
  .grid { stroke:#dfe5ef; stroke-width:1; } .axis { stroke:#8390a5; stroke-width:1.5; }
</style>
<rect class="bg" width="1200" height="650" rx="22"/>
<rect class="panel" x="24" y="24" width="1152" height="602" rx="18"/>
<text class="title" x="62" y="76">Full-Hybrid ↔ response HVP trajectory</text>
<text class="sub" x="62" y="106">Stage-0 step 10 and active Stage-1 diagnostics; zero OPT errors are drawn at 1e-7.</text>
<line class="grid" x1="120.0" y1="555.0" x2="1120.0" y2="555.0"/><text class="tick" x="104.0" y="560.0" text-anchor="end">1e-7</text><line class="grid" x1="120.0" y1="488.33333333333337" x2="1120.0" y2="488.33333333333337"/><text class="tick" x="104.0" y="493.33333333333337" text-anchor="end">1e-6</text><line class="grid" x1="120.0" y1="421.6666666666667" x2="1120.0" y2="421.6666666666667"/><text class="tick" x="104.0" y="426.6666666666667" text-anchor="end">1e-5</text><line class="grid" x1="120.0" y1="355.0" x2="1120.0" y2="355.0"/><text class="tick" x="104.0" y="360.0" text-anchor="end">1e-4</text><line class="grid" x1="120.0" y1="288.33333333333337" x2="1120.0" y2="288.33333333333337"/><text class="tick" x="104.0" y="293.33333333333337" text-anchor="end">1e-3</text><line class="grid" x1="120.0" y1="221.66666666666663" x2="1120.0" y2="221.66666666666663"/><text class="tick" x="104.0" y="226.66666666666663" text-anchor="end">1e-2</text><line class="grid" x1="120.0" y1="155.0" x2="1120.0" y2="155.0"/><text class="tick" x="104.0" y="160.0" text-anchor="end">1e-1</text><line class="grid" x1="120.0" y1="155.0" x2="120.0" y2="555.0"/><text class="tick" x="120.0" y="581.0" text-anchor="middle">10</text><line class="grid" x1="231.1111111111111" y1="155.0" x2="231.1111111111111" y2="555.0"/><text class="tick" x="231.1111111111111" y="581.0" text-anchor="middle">20</text><line class="grid" x1="453.3333333333333" y1="155.0" x2="453.3333333333333" y2="555.0"/><text class="tick" x="453.3333333333333" y="581.0" text-anchor="middle">40</text><line class="grid" x1="675.5555555555555" y1="155.0" x2="675.5555555555555" y2="555.0"/><text class="tick" x="675.5555555555555" y="581.0" text-anchor="middle">60</text><line class="grid" x1="897.7777777777778" y1="155.0" x2="897.7777777777778" y2="555.0"/><text class="tick" x="897.7777777777778" y="581.0" text-anchor="middle">80</text><line class="grid" x1="1120.0" y1="155.0" x2="1120.0" y2="555.0"/><text class="tick" x="1120.0" y="581.0" text-anchor="middle">100</text><line x1="120.0" y1="288.33333333333337" x2="1120.0" y2="288.33333333333337" stroke="#d14343" stroke-width="2.5" stroke-dasharray="9 7"/><text class="small" x="1115.0" y="278.33333333333337" text-anchor="end" fill="#d14343">frozen ceiling = 1e-3</text><polyline points="120.0,320.1 231.1,312.1 453.3,307.8 675.6,313.7 897.8,327.3 1120.0,555.0" fill="none" stroke="#2463eb" stroke-width="4" stroke-linejoin="round" stroke-linecap="round"/><circle cx="120.0" cy="320.1170750855266" r="5" fill="#2463eb" stroke="#fff" stroke-width="2"/><circle cx="231.1111111111111" cy="312.13168666775664" r="5" fill="#2463eb" stroke="#fff" stroke-width="2"/><circle cx="453.3333333333333" cy="307.7537256278507" r="5" fill="#2463eb" stroke="#fff" stroke-width="2"/><circle cx="675.5555555555555" cy="313.65572029009707" r="5" fill="#2463eb" stroke="#fff" stroke-width="2"/><circle cx="897.7777777777778" cy="327.3165721972723" r="5" fill="#2463eb" stroke="#fff" stroke-width="2"/><circle cx="1120.0" cy="555.0" r="5" fill="#2463eb" stroke="#fff" stroke-width="2"/><polyline points="120.0,555.0 231.1,555.0 453.3,555.0 675.6,555.0 897.8,322.8 1120.0,352.0" fill="none" stroke="#8b5cf6" stroke-width="4" stroke-linejoin="round" stroke-linecap="round"/><circle cx="120.0" cy="555.0" r="5" fill="#8b5cf6" stroke="#fff" stroke-width="2"/><circle cx="231.1111111111111" cy="555.0" r="5" fill="#8b5cf6" stroke="#fff" stroke-width="2"/><circle cx="453.3333333333333" cy="555.0" r="5" fill="#8b5cf6" stroke="#fff" stroke-width="2"/><circle cx="675.5555555555555" cy="555.0" r="5" fill="#8b5cf6" stroke="#fff" stroke-width="2"/><circle cx="897.7777777777778" cy="322.7704371501326" r="5" fill="#8b5cf6" stroke="#fff" stroke-width="2"/><circle cx="1120.0" cy="352.02387242822715" r="5" fill="#8b5cf6" stroke="#fff" stroke-width="2"/><polyline points="120.0,326.4 231.1,192.7" fill="none" stroke="#e64b3c" stroke-width="4" stroke-linejoin="round" stroke-linecap="round"/><circle cx="120.0" cy="326.35392922869795" r="5" fill="#e64b3c" stroke="#fff" stroke-width="2"/><circle cx="231.1111111111111" cy="192.69871707358374" r="8" fill="#e64b3c" stroke="#fff" stroke-width="2"/><line class="axis" x1="120.0" y1="555.0" x2="1120.0" y2="555.0"/><line class="axis" x1="120.0" y1="155.0" x2="120.0" y2="555.0"/><text class="small" x="620" y="604" text-anchor="middle">training step</text><text class="small" transform="translate(34 360) rotate(-90)" text-anchor="middle">full/response relative error (log scale)</text><circle cx="760" cy="94" r="6" fill="#2463eb"/><text class="small" x="772" y="99">GPT</text><circle cx="880" cy="94" r="6" fill="#8b5cf6"/><text class="small" x="892" y="99">OPT</text><circle cx="1000" cy="94" r="6" fill="#e64b3c"/><text class="small" x="1012" y="99">Pythia</text><text class="label" x="249.1111111111111" y="176.69871707358374" fill="#d14343">Pythia 2.72% — FAIL</text>
</svg>
